<svg width="20" height="20" viewBox="0 0 20 20" fill="none" xmlns="http://www.w3.org/2000/svg">
<g clip-path="url(#clip0_46_201)">
<path d="M10 0.625C4.83063 0.625 0.625 4.83063 0.625 10C0.625 15.1694 4.83063 19.375 10 19.375C15.1694 19.375 19.375 15.1694 19.375 10C19.375 4.83063 15.1694 0.625 10 0.625ZM2.5 10.625H1.875C1.53 10.625 1.25 10.345 1.25 10C1.25 9.655 1.53 9.375 1.875 9.375H2.5C2.845 9.375 3.125 9.655 3.125 10C3.125 10.345 2.845 10.625 2.5 10.625ZM9.375 1.875C9.375 1.53 9.655 1.25 10 1.25C10.345 1.25 10.625 1.53 10.625 1.875V2.5C10.625 2.845 10.345 3.125 10 3.125C9.655 3.125 9.375 2.845 9.375 2.5V1.875ZM5.13875 15.745L4.69688 16.1869C4.575 16.3088 4.415 16.37 4.255 16.37C4.095 16.37 3.935 16.3088 3.81312 16.1869C3.56875 15.9425 3.56875 15.5475 3.81312 15.3031L4.255 14.8612C4.49938 14.6169 4.89437 14.6169 5.13875 14.8612C5.38313 15.1056 5.38313 15.5006 5.13875 15.745ZM5.13875 5.13812C5.01688 5.26 4.85687 5.32125 4.69688 5.32125C4.53688 5.32125 4.37688 5.26 4.255 5.13812L3.81312 4.69625C3.56875 4.45187 3.56875 4.05687 3.81312 3.8125C4.0575 3.56813 4.4525 3.56813 4.69688 3.8125L5.13875 4.25437C5.38313 4.49875 5.38313 4.89375 5.13875 5.13812ZM10.625 18.1244C10.625 18.4694 10.345 18.7494 10 18.7494C9.655 18.7494 9.375 18.4694 9.375 18.1244V17.4994C9.375 17.1544 9.655 16.8744 10 16.8744C10.345 16.8744 10.625 17.1544 10.625 17.4994V18.1244ZM12.9419 12.9412C12.82 13.0631 12.66 13.1244 12.5 13.1244C12.34 13.1244 12.18 13.0631 12.0581 12.9412L9.55813 10.4412C9.44063 10.3237 9.375 10.165 9.375 9.99937V6.24937C9.375 5.90437 9.655 5.62437 10 5.62437C10.345 5.62437 10.625 5.90437 10.625 6.24937V9.74063L12.9419 12.0575C13.1863 12.3019 13.1863 12.6969 12.9419 12.9412ZM16.1869 16.1863C16.065 16.3081 15.905 16.3694 15.745 16.3694C15.585 16.3694 15.425 16.3081 15.3031 16.1863L14.8612 15.7444C14.6169 15.5 14.6169 15.105 14.8612 14.8606C15.1056 14.6163 15.5006 14.6163 15.745 14.8606L16.1869 15.3025C16.4313 15.5469 16.4313 15.9419 16.1869 16.1863ZM16.1869 4.69562L15.745 5.1375C15.6231 5.25938 15.4631 5.32062 15.3031 5.32062C15.1431 5.32062 14.9831 5.25938 14.8612 5.1375C14.6169 4.89313 14.6169 4.49813 14.8612 4.25375L15.3031 3.81187C15.5475 3.5675 15.9425 3.5675 16.1869 3.81187C16.4313 4.05625 16.4313 4.45125 16.1869 4.69562ZM18.125 10.6237H17.5C17.155 10.6237 16.875 10.3438 16.875 9.99875C16.875 9.65375 17.155 9.37375 17.5 9.37375H18.125C18.47 9.37375 18.75 9.65375 18.75 9.99875C18.75 10.3438 18.47 10.6237 18.125 10.6237Z" fill="white"/>
</g>
<defs>
<clipPath id="clip0_46_201">
<rect width="20" height="20" fill="white"/>
</clipPath>
</defs>
</svg>
