<svg width="32" height="32" viewBox="0 0 32 32" fill="none" xmlns="http://www.w3.org/2000/svg">
<g clip-path="url(#clip0_46_221)">
<path d="M16.025 31.95C24.8478 31.95 32 24.7978 32 15.975C32 7.15225 24.8478 0 16.025 0C7.2023 0 0.0500488 7.15225 0.0500488 15.975C0.0500488 24.7978 7.2023 31.95 16.025 31.95Z" fill="white"/>
<path d="M9.19569 15.8886L12.4823 17.0048L20.2852 12.2346C20.3983 12.1654 20.5142 12.319 20.4166 12.4088L14.5093 17.8462L14.2896 20.8903C14.2729 21.1219 14.5518 21.2508 14.7174 21.0881L16.5362 19.2995L19.8613 21.8166C20.2197 22.0879 20.7387 21.8967 20.8353 21.4577L23.1506 10.9453C23.2826 10.3456 22.695 9.83951 22.1215 10.0591L9.17897 15.0152C8.77297 15.1707 8.78402 15.7488 9.19569 15.8886Z" fill="#35B1E0"/>
</g>
<defs>
<clipPath id="clip0_46_221">
<rect width="31.95" height="31.95" fill="white" transform="translate(0.0500488)"/>
</clipPath>
</defs>
</svg>
