<svg width="32" height="32" viewBox="0 0 32 32" fill="none" xmlns="http://www.w3.org/2000/svg">
<g clip-path="url(#clip0_46_209)">
<path d="M15.975 31.95C24.7978 31.95 31.95 24.7978 31.95 15.975C31.95 7.15225 24.7978 0 15.975 0C7.15225 0 0 7.15225 0 15.975C0 24.7978 7.15225 31.95 15.975 31.95Z" fill="white"/>
<path d="M24.5417 11.3826V11.3617C24.3519 10.5928 23.8564 9.79816 23.2066 9.12901C22.4474 8.34404 21.4806 7.72797 20.5573 7.52851H20.538C17.7846 7.00091 14.956 7.00091 12.2026 7.52851H12.1833C10.4686 7.90008 8.60748 9.69199 8.19248 11.3617V11.3826C7.68259 13.6974 7.68259 16.0955 8.19248 18.4103V18.4296C8.48845 19.6199 9.51791 20.8713 10.705 21.6274C11.0927 21.88 11.5147 22.0756 11.9581 22.208V24.0707C11.9587 24.2196 12.0036 24.3649 12.0871 24.4881C12.1707 24.6113 12.289 24.7069 12.427 24.7626C12.565 24.8184 12.7165 24.8317 12.8622 24.8011C13.0079 24.7704 13.1411 24.697 13.2449 24.5903L15.1333 22.6279C15.5419 22.6504 15.9537 22.6633 16.3622 22.6633C17.7608 22.6628 19.1563 22.5303 20.53 22.2676H20.5493C22.2592 21.8944 24.1218 20.1025 24.5336 18.4328V18.4135C25.0466 16.0982 25.0494 13.699 24.5417 11.3826ZM23.0473 18.0661C22.7707 19.155 21.3584 20.511 20.234 20.7604C18.7736 21.0401 17.2873 21.1615 15.8009 21.1223C15.7864 21.1214 15.7719 21.1238 15.7585 21.1294C15.7451 21.135 15.7332 21.1435 15.7237 21.1544L14.3451 22.57L12.8782 24.0739C12.8547 24.0988 12.8243 24.1159 12.791 24.1233C12.7576 24.1306 12.7228 24.1278 12.6911 24.1151C12.6594 24.1025 12.6322 24.0806 12.6131 24.0523C12.5939 24.024 12.5837 23.9907 12.5838 23.9565V20.8681C12.5838 20.8433 12.5752 20.8192 12.5593 20.8001C12.5434 20.781 12.5214 20.7681 12.4969 20.7636C12.2624 20.7079 12.0363 20.6214 11.8246 20.5062C10.8691 19.9963 9.90557 18.9507 9.68359 18.0661C9.22381 15.9736 9.22381 13.8063 9.68359 11.7139C9.95865 10.6298 11.379 9.27699 12.4953 9.02606C15.0517 8.53693 17.6776 8.53693 20.234 9.02606C20.8533 9.16439 21.561 9.6357 22.1144 10.2148C22.5696 10.6861 22.9187 11.2298 23.0473 11.7188C23.5064 13.8096 23.5064 15.9752 23.0473 18.0661Z" fill="#35B1E0"/>
<path d="M20.2741 18.2266C20.0651 18.7035 19.7059 19.0989 19.2511 19.3526C19.1084 19.4131 18.9603 19.46 18.8088 19.4925C18.6366 19.441 18.4726 19.4056 18.3262 19.3429C17.1068 18.8684 15.9717 18.2009 14.9643 17.366C14.6651 17.1108 14.384 16.8351 14.1231 16.5408C13.4788 15.7988 12.9377 14.9731 12.5145 14.0862C12.3086 13.6664 12.1349 13.2321 11.958 12.7994C11.7971 12.4053 12.0352 11.9951 12.2797 11.7007C12.519 11.4277 12.8134 11.2085 13.1435 11.0573C13.2596 10.9989 13.3926 10.9831 13.5192 11.0124C13.6458 11.0418 13.7582 11.1146 13.8368 11.2182C14.2477 11.6799 14.61 12.1828 14.9177 12.7189C15.0146 12.8748 15.0478 13.062 15.0104 13.2418C14.973 13.4215 14.8678 13.5799 14.7166 13.6841C14.6362 13.7404 14.5558 13.8047 14.4866 13.8674C14.4184 13.9179 14.3596 13.98 14.3129 14.0508C14.2726 14.1171 14.2481 14.1918 14.2414 14.2691C14.2347 14.3464 14.246 14.4242 14.2743 14.4964C14.5847 15.3505 15.056 16.0631 15.7606 16.5633C15.999 16.7319 16.2559 16.8728 16.5262 16.9832C16.7028 17.0792 16.9011 17.128 17.1021 17.1247C17.4528 17.0829 17.5686 16.6952 17.8131 16.4958C17.9253 16.4039 18.0642 16.3507 18.2091 16.344C18.354 16.3373 18.4971 16.3776 18.6173 16.4588C18.8779 16.6196 19.1289 16.8014 19.3798 16.9784C19.628 17.1477 19.8669 17.3303 20.0956 17.5253C20.2025 17.6029 20.2789 17.7156 20.3115 17.8437C20.3441 17.9718 20.3309 18.1072 20.2741 18.2266Z" fill="#35B1E0"/>
<path d="M16.8272 10.519H16.6213C16.6873 10.5158 16.7565 10.519 16.8272 10.519Z" fill="#35B1E0"/>
<path d="M20.3868 15.3392C20.2259 15.3392 20.1471 15.2025 20.1359 15.0529C20.115 14.7586 20.0989 14.4626 20.0587 14.1698C19.9891 13.6759 19.8171 13.2019 19.5536 12.7784C19.2827 12.3372 18.9223 11.9578 18.4956 11.6647C18.0689 11.3715 17.5854 11.1712 17.0764 11.0766C16.8448 11.0348 16.6083 11.0251 16.3751 11.001C16.2271 10.9849 16.0325 10.9753 16.0003 10.7919C15.9955 10.7563 15.9984 10.72 16.0087 10.6856C16.019 10.6512 16.0365 10.6194 16.0601 10.5923C16.0837 10.5652 16.1128 10.5434 16.1455 10.5285C16.1782 10.5135 16.2137 10.5057 16.2496 10.5056C16.2882 10.5034 16.3269 10.5034 16.3655 10.5056C17.0686 10.5115 17.7593 10.6908 18.3766 11.0275C18.9939 11.3642 19.5186 11.8479 19.9042 12.4358C20.2087 12.9097 20.4154 13.4396 20.5123 13.9945C20.5734 14.3419 20.5959 14.699 20.6233 15.0529C20.6288 15.0876 20.6268 15.1231 20.6176 15.1569C20.6083 15.1908 20.592 15.2223 20.5696 15.2494C20.5472 15.2765 20.5194 15.2985 20.4879 15.314C20.4563 15.3295 20.4219 15.3381 20.3868 15.3392Z" fill="#35B1E0"/>
<path d="M19.5166 14.5883C19.5157 14.636 19.5092 14.6835 19.4973 14.7298C19.4833 14.7763 19.4552 14.8174 19.417 14.8474C19.3788 14.8774 19.3323 14.8949 19.2838 14.8975C19.2353 14.9002 19.1871 14.8878 19.1459 14.8621C19.1047 14.8364 19.0724 14.7987 19.0534 14.7539C19.0356 14.689 19.0275 14.6218 19.0292 14.5545C19.033 14.1947 18.9618 13.8381 18.8201 13.5073C18.7879 13.4366 18.7526 13.3642 18.7123 13.295C18.4821 12.8981 18.1403 12.5776 17.7295 12.3733C17.4817 12.2563 17.2185 12.175 16.9478 12.132C16.8287 12.1127 16.7097 12.1015 16.5907 12.0854C16.5597 12.0838 16.5294 12.0759 16.5016 12.0622C16.4737 12.0484 16.449 12.0291 16.429 12.0055C16.4089 11.9818 16.394 11.9543 16.385 11.9246C16.376 11.8949 16.3732 11.8637 16.3767 11.8328C16.3768 11.8013 16.3834 11.7702 16.3964 11.7414C16.4093 11.7126 16.4281 11.6869 16.4517 11.666C16.4752 11.645 16.5029 11.6293 16.533 11.6198C16.563 11.6103 16.5948 11.6072 16.6261 11.6109C17.0984 11.6291 17.5611 11.7498 17.9821 11.9647C18.4961 12.2234 18.9155 12.6377 19.1804 13.1486C19.3296 13.4469 19.4296 13.7674 19.4764 14.0977C19.4851 14.1407 19.4915 14.1842 19.4957 14.228C19.5037 14.3245 19.507 14.421 19.515 14.54C19.515 14.5513 19.5166 14.5657 19.5166 14.5883Z" fill="#35B1E0"/>
<path d="M18.4147 14.3666C18.4056 14.4074 18.3845 14.4445 18.3541 14.4732C18.3237 14.5019 18.2854 14.5208 18.2442 14.5275H18.2088C18.1561 14.5309 18.1037 14.5171 18.0596 14.488C18.0155 14.459 17.982 14.4164 17.9643 14.3666C17.9543 14.3403 17.9478 14.3127 17.945 14.2846C17.9365 14.1764 17.9204 14.0689 17.8967 13.9629C17.8489 13.7484 17.727 13.5576 17.5525 13.424C17.4681 13.3635 17.374 13.3178 17.2742 13.2889C17.1471 13.2519 17.0136 13.2616 16.8882 13.231C16.8262 13.22 16.771 13.1849 16.7348 13.1334C16.6987 13.0818 16.6844 13.018 16.6951 12.956C16.7071 12.8965 16.7403 12.8435 16.7886 12.8068C16.8369 12.77 16.8969 12.7522 16.9573 12.7565C17.694 12.8096 18.2442 13.1635 18.3857 13.9532C18.4003 14.0266 18.4105 14.1007 18.4163 14.1752C18.4253 14.2388 18.4248 14.3033 18.4147 14.3666Z" fill="#35B1E0"/>
</g>
<defs>
<clipPath id="clip0_46_209">
<rect width="31.95" height="31.95" fill="white"/>
</clipPath>
</defs>
</svg>
