<svg width="19" height="19" viewBox="0 0 19 19" fill="none" xmlns="http://www.w3.org/2000/svg">
<g clip-path="url(#clip0_46_192)">
<path d="M9.5 0C4.25917 0 0 4.25917 0 9.5C0 14.7408 4.25917 19 9.5 19C10.0938 19 10.6717 18.9446 11.2417 18.8417L10.5925 16.8942C10.4975 16.9892 10.3946 17.0683 10.2917 17.1396V15.9838L8.81917 11.5742C8.74 11.3446 8.70833 11.1071 8.70833 10.8775V12.4846C7.95625 12.5163 7.22 12.5796 6.52333 12.6983C6.38083 11.9542 6.28583 11.1467 6.24625 10.2758H8.70833V10.8775C8.70833 10.3154 8.93 9.76917 9.34958 9.34958C9.75333 8.93792 10.2996 8.70833 10.8854 8.70833C11.1229 8.70833 11.3525 8.74792 11.5821 8.81917L15.9442 10.2758H17.3771C17.3613 10.4342 17.3454 10.5846 17.3138 10.735L18.8417 11.2417C18.9446 10.6717 19 10.0938 19 9.5C19 4.25917 14.7408 0 9.5 0ZM8.70833 14.0679V17.1396C8.0275 16.6804 7.37833 15.6671 6.91917 14.2342C7.49708 14.1471 8.09083 14.0917 8.70833 14.0679ZM2.85 5.21708C3.48333 5.51792 4.19583 5.77125 4.97167 5.97708C4.80542 6.82417 4.7025 7.73458 4.66292 8.6925H1.62292C1.74958 7.42583 2.19292 6.24625 2.85 5.21708ZM1.62292 10.2758H4.66292C4.7025 11.2496 4.80542 12.1679 4.97167 13.0229C4.19583 13.2288 3.48333 13.4821 2.85 13.7829C2.185 12.7537 1.74958 11.5583 1.62292 10.2758ZM6.28583 16.7279C5.37542 16.3242 4.56 15.7542 3.87125 15.0575C4.3225 14.8596 4.82125 14.6933 5.35167 14.5588C5.605 15.3742 5.92167 16.1104 6.28583 16.7279ZM5.35167 4.44125C4.82125 4.30667 4.3225 4.14042 3.87125 3.9425C4.56 3.24583 5.37542 2.67583 6.28583 2.27208C5.92167 2.88958 5.605 3.62583 5.35167 4.44125ZM8.70833 8.6925H6.24625C6.28583 7.8375 6.38083 7.03792 6.52333 6.30167C7.22 6.42042 7.95625 6.48375 8.70833 6.51542V8.6925ZM8.70833 4.93208C8.09083 4.90833 7.49708 4.85292 6.91917 4.76583C7.37833 3.33292 8.0275 2.31958 8.70833 1.86042V4.93208ZM10.2917 1.86042C10.9725 2.31958 11.6217 3.33292 12.0808 4.76583C11.5029 4.85292 10.9092 4.90833 10.2917 4.93208V1.86042ZM10.2917 8.6925V6.51542C11.0437 6.48375 11.78 6.42042 12.4767 6.30167C12.6192 7.03792 12.7142 7.8375 12.7538 8.6925H10.2917ZM12.7142 2.27208C13.6246 2.67583 14.44 3.24583 15.1288 3.9425C14.6775 4.14042 14.1788 4.30667 13.6483 4.44125C13.395 3.62583 13.0783 2.88958 12.7142 2.27208ZM14.3371 8.6925C14.2975 7.73458 14.1946 6.82417 14.0283 5.97708C14.8042 5.77125 15.5167 5.51792 16.15 5.21708C16.8071 6.24625 17.2504 7.42583 17.3771 8.6925H14.3371Z" fill="white"/>
<path d="M13.3927 19.0003C13.3887 19.0003 13.384 19.0003 13.3792 19.0003C13.129 18.9948 12.909 18.8325 12.8298 18.5942L10.3226 11.0734C10.2513 10.8596 10.3067 10.6245 10.4659 10.4654C10.625 10.3055 10.8601 10.2501 11.0739 10.3221L18.5947 12.8293C18.8322 12.9085 18.9945 13.1286 19.0008 13.3787C19.0064 13.6289 18.8544 13.8569 18.62 13.9463L15.2452 15.2447L13.9468 18.6196C13.8582 18.8499 13.6373 19.0003 13.3927 19.0003Z" fill="white"/>
</g>
<defs>
<clipPath id="clip0_46_192">
<rect width="19" height="19" fill="white"/>
</clipPath>
</defs>
</svg>
