<svg width="34" height="46" viewBox="0 0 34 46" fill="none" xmlns="http://www.w3.org/2000/svg">
<g clip-path="url(#clip0_13_68)">
<path d="M17.9015 38.0696L33.0569 22.8722C33.5532 22.3743 33.5523 21.5681 33.0543 21.071C32.5564 20.5743 31.7498 20.5756 31.2532 21.0736L16.9998 35.3664L2.74657 21.0731C2.24986 20.5752 1.44378 20.5739 0.945789 21.0705C0.696152 21.3197 0.571331 21.6462 0.571331 21.9726C0.571331 22.2982 0.695316 22.6234 0.943218 22.8721L16.0982 38.0696C16.3368 38.3094 16.6615 38.444 16.9998 38.444C17.3382 38.444 17.6625 38.309 17.9015 38.0696Z" fill="#34B1E0"/>
</g>
<g clip-path="url(#clip1_13_68)">
<path d="M17.9015 24.9268L33.0569 9.72939C33.5532 9.23147 33.5523 8.42531 33.0543 7.92822C32.5564 7.43152 31.7498 7.4328 31.2532 7.93079L16.9998 22.2236L2.74657 7.93028C2.24986 7.43235 1.44378 7.43107 0.945789 7.92771C0.696152 8.1769 0.571331 8.50335 0.571331 8.8298C0.571331 9.15542 0.695316 9.48059 0.943218 9.72933L16.0982 24.9268C16.3368 25.1666 16.6615 25.3012 16.9998 25.3012C17.3382 25.3012 17.6625 25.1662 17.9015 24.9268Z" fill="#34B1E0" fill-opacity="0.3"/>
</g>
<defs>
<clipPath id="clip0_13_68">
<rect width="32.8571" height="32.8571" fill="white" transform="translate(33.4285 13.1428) rotate(90)"/>
</clipPath>
<clipPath id="clip1_13_68">
<rect width="32.8571" height="32.8571" fill="white" transform="translate(33.4285) rotate(90)"/>
</clipPath>
</defs>
</svg>
