<svg width="28" height="20" viewBox="0 0 28 20" fill="none" xmlns="http://www.w3.org/2000/svg">
<g clip-path="url(#clip0_13_87)">
<path d="M4.82713 10.5488L14.0777 19.7738C14.3808 20.0759 14.8715 20.0754 15.1741 19.7723C15.4764 19.4692 15.4756 18.9782 15.1725 18.6759L6.47255 9.99996L15.1728 1.32406C15.4759 1.02172 15.4767 0.531057 15.1744 0.227934C15.0227 0.0759811 14.824 3.76429e-06 14.6253 3.74691e-06C14.4271 3.72959e-06 14.2292 0.0754737 14.0778 0.226372L4.82713 9.45114C4.68116 9.59637 4.59924 9.79403 4.59924 9.99996C4.59924 10.2059 4.68139 10.4033 4.82713 10.5488Z" fill="white"/>
</g>
<g clip-path="url(#clip1_13_87)">
<path d="M12.8271 10.5488L22.0777 19.7738C22.3808 20.0759 22.8715 20.0754 23.1741 19.7723C23.4764 19.4692 23.4756 18.9782 23.1725 18.6759L14.4726 9.99996L23.1728 1.32406C23.4759 1.02172 23.4767 0.531057 23.1744 0.227934C23.0227 0.0759811 22.824 3.76429e-06 22.6253 3.74691e-06C22.4271 3.72959e-06 22.2292 0.0754737 22.0778 0.226372L12.8271 9.45114C12.6812 9.59637 12.5992 9.79403 12.5992 9.99996C12.5992 10.2059 12.6814 10.4033 12.8271 10.5488Z" fill="white" fill-opacity="0.3"/>
</g>
<defs>
<clipPath id="clip0_13_87">
<rect width="20" height="20" fill="white" transform="translate(20 20) rotate(-180)"/>
</clipPath>
<clipPath id="clip1_13_87">
<rect width="20" height="20" fill="white" transform="translate(28 20) rotate(-180)"/>
</clipPath>
</defs>
</svg>
