<svg width="28" height="20" viewBox="0 0 28 20" fill="none" xmlns="http://www.w3.org/2000/svg">
<g clip-path="url(#clip0_13_96)">
<path d="M23.1729 9.45117L13.9223 0.226167C13.6192 -0.0759022 13.1285 -0.0753945 12.8259 0.227729C12.5236 0.530814 12.5244 1.02179 12.8275 1.32409L21.5274 10L12.8272 18.6759C12.5241 18.9783 12.5233 19.4689 12.8256 19.7721C12.9773 19.924 13.176 20 13.3747 20C13.5729 20 13.7708 19.9245 13.9222 19.7736L23.1729 10.5489C23.3188 10.4036 23.4008 10.206 23.4008 10C23.4008 9.7941 23.3186 9.59668 23.1729 9.45117Z" fill="white"/>
</g>
<g clip-path="url(#clip1_13_96)">
<path d="M15.1729 9.45117L5.92228 0.226167C5.6192 -0.0759022 5.12849 -0.0753945 4.82592 0.227729C4.52358 0.530814 4.52436 1.02179 4.82748 1.32409L13.5274 10L4.82716 18.6759C4.52408 18.9783 4.5233 19.4689 4.8256 19.7721C4.97728 19.924 5.17599 20 5.3747 20C5.5729 20 5.77083 19.9245 5.92224 19.7736L15.1729 10.5489C15.3188 10.4036 15.4008 10.206 15.4008 10C15.4008 9.7941 15.3186 9.59668 15.1729 9.45117Z" fill="white" fill-opacity="0.3"/>
</g>
<defs>
<clipPath id="clip0_13_96">
<rect width="20" height="20" fill="white" transform="translate(8)"/>
</clipPath>
<clipPath id="clip1_13_96">
<rect width="20" height="20" fill="white"/>
</clipPath>
</defs>
</svg>
