<svg width="106" height="106" viewBox="0 0 106 106" fill="none" xmlns="http://www.w3.org/2000/svg">
<rect opacity="0.3" width="106" height="106" rx="30" fill="url(#paint0_linear_13_230)"/>
<rect x="14" y="14" width="78" height="78" rx="30" fill="url(#paint1_linear_13_230)"/>
<path d="M66.5459 47.9647C66.466 47.8237 66.35 47.7063 66.2099 47.6247C66.0698 47.543 65.9106 47.5 65.7484 47.5H53.7401L55.7533 32.1176C55.7749 31.9118 55.7266 31.7046 55.6162 31.5295C55.5057 31.3545 55.3396 31.2217 55.1445 31.1525C54.9494 31.0833 54.7367 31.0818 54.5406 31.1482C54.3446 31.2146 54.1766 31.3451 54.0637 31.5186L39.4602 57.1032C39.3749 57.2421 39.328 57.4013 39.3247 57.5643C39.3213 57.7273 39.3614 57.8883 39.441 58.0306C39.5205 58.1729 39.6366 58.2914 39.7772 58.374C39.9179 58.4565 40.078 58.5 40.241 58.5H52.0699L50.4745 73.9055C50.4588 74.1106 50.5122 74.3152 50.6261 74.4865C50.7401 74.6578 50.908 74.7861 51.1033 74.8509C51.2986 74.9158 51.5099 74.9134 51.7037 74.8443C51.8975 74.7752 52.0626 74.6433 52.1728 74.4695L66.5349 48.8876C66.6182 48.7485 66.6631 48.5898 66.665 48.4277C66.667 48.2655 66.6259 48.1058 66.5459 47.9647Z" fill="white"/>
<defs>
<linearGradient id="paint0_linear_13_230" x1="52.8087" y1="0" x2="52.8087" y2="106" gradientUnits="userSpaceOnUse">
<stop stop-color="#83DFF4"/>
<stop offset="0.521429" stop-color="#35B1E0"/>
<stop offset="1" stop-color="#33B0E0"/>
</linearGradient>
<linearGradient id="paint1_linear_13_230" x1="52.8592" y1="14" x2="52.8592" y2="92" gradientUnits="userSpaceOnUse">
<stop stop-color="#83DFF4"/>
<stop offset="0.521429" stop-color="#35B1E0"/>
<stop offset="1" stop-color="#33B0E0"/>
</linearGradient>
</defs>
</svg>
