<svg width="75" height="75" viewBox="0 0 75 75" fill="none" xmlns="http://www.w3.org/2000/svg">
<circle cx="37.5" cy="37.5" r="37.5" fill="#CAEBF7"/>
<g clip-path="url(#clip0_46_134)">
<path d="M36.8266 25.5516L24.3069 38.106C23.897 38.5173 23.8977 39.1833 24.3091 39.5939C24.7204 40.0042 25.3867 40.0032 25.797 39.5918L37.5715 27.7847L49.3459 39.5922C49.7562 40.0035 50.4221 40.0046 50.8335 39.5943C51.0397 39.3885 51.1429 39.1188 51.1429 38.8491C51.1429 38.5801 51.0404 38.3115 50.8356 38.106L38.3163 25.5516C38.1192 25.3535 37.851 25.2423 37.5715 25.2423C37.292 25.2423 37.0241 25.3538 36.8266 25.5516Z" fill="#34B1E0"/>
</g>
<g clip-path="url(#clip1_46_134)">
<path d="M36.8266 36.4081L24.3069 48.9624C23.897 49.3738 23.8977 50.0397 24.3091 50.4503C24.7204 50.8607 25.3867 50.8596 25.797 50.4482L37.5715 38.6411L49.3459 50.4487C49.7562 50.86 50.4221 50.861 50.8335 50.4508C51.0397 50.2449 51.1429 49.9752 51.1429 49.7056C51.1429 49.4366 51.0404 49.168 50.8356 48.9625L38.3163 36.4081C38.1192 36.2099 37.851 36.0988 37.5715 36.0988C37.292 36.0988 37.0241 36.2103 36.8266 36.4081Z" fill="#34B1E0" fill-opacity="0.3"/>
</g>
<defs>
<clipPath id="clip0_46_134">
<rect width="27.1429" height="27.1429" fill="white" transform="translate(24 46.1436) rotate(-90)"/>
</clipPath>
<clipPath id="clip1_46_134">
<rect width="27.1429" height="27.1429" fill="white" transform="translate(24 57) rotate(-90)"/>
</clipPath>
</defs>
</svg>
