<svg width="106" height="106" viewBox="0 0 106 106" fill="none" xmlns="http://www.w3.org/2000/svg">
<rect opacity="0.3" width="106" height="106" rx="30" fill="url(#paint0_linear_13_887)"/>
<rect x="14" y="14" width="78" height="78" rx="30" fill="url(#paint1_linear_13_887)"/>
<path d="M64.3382 60.2107C63.978 57.7634 62.7526 55.5264 60.8843 53.9053C59.0159 52.2842 56.6284 51.3865 54.1548 51.375H51.8495C49.3759 51.3865 46.9884 52.2842 45.1201 53.9053C43.2517 55.5264 42.0263 57.7634 41.6662 60.2107L40.5612 67.937C40.5259 68.1867 40.5492 68.4413 40.6293 68.6805C40.7094 68.9196 40.8441 69.1369 41.0227 69.315C41.456 69.7483 44.1145 71.9583 53.0043 71.9583C61.8942 71.9583 64.5462 69.757 64.986 69.315C65.1646 69.1369 65.2993 68.9196 65.3794 68.6805C65.4595 68.4413 65.4828 68.1867 65.4475 67.937L64.3382 60.2107Z" fill="white"/>
<path d="M43.38 52.5665C41.286 54.4969 39.9235 57.0917 39.5233 59.9115L38.7217 65.4581C32.2867 65.4148 30.3367 63.0748 30.0117 62.5981C29.886 62.425 29.7964 62.2284 29.748 62.02C29.6996 61.8116 29.6935 61.5956 29.73 61.3848L30.2067 58.6981C30.455 57.294 31.0383 55.9705 31.907 54.8398C32.7757 53.7091 33.9043 52.8045 35.197 52.2028C36.4898 51.6011 37.9085 51.3199 39.333 51.3833C40.7575 51.4466 42.1458 51.8524 43.38 52.5665Z" fill="white"/>
<path d="M76.2701 61.3848C76.3066 61.5956 76.3005 61.8116 76.2521 62.02C76.2037 62.2284 76.1141 62.425 75.9885 62.5981C75.6635 63.0748 73.7135 65.4148 67.2785 65.4581L66.4768 59.9115C66.0766 57.0917 64.7141 54.4969 62.6201 52.5665C63.8544 51.8524 65.2426 51.4466 66.6671 51.3833C68.0916 51.3199 69.5104 51.6011 70.8031 52.2028C72.0958 52.8045 73.2244 53.7091 74.0931 54.8398C74.9618 55.9705 75.5451 57.294 75.7935 58.6981L76.2701 61.3848Z" fill="white"/>
<path d="M43.7483 47.8C43.2029 48.5735 42.4788 49.2039 41.6376 49.6377C40.7965 50.0715 39.863 50.2958 38.9166 50.2917C37.9725 50.2917 37.0419 50.0673 36.2015 49.6371C35.3611 49.2069 34.635 48.5831 34.0829 47.8172C33.5309 47.0513 33.1688 46.1652 33.0264 45.2319C32.884 44.2986 32.9655 43.3448 33.264 42.4491C33.5626 41.5535 34.0697 40.7416 34.7436 40.0804C35.4175 39.4191 36.2388 38.9275 37.14 38.646C38.0412 38.3645 38.9963 38.3012 39.9268 38.4613C40.8572 38.6213 41.7363 39.0002 42.4916 39.5667C42.2743 40.4162 42.1652 41.2898 42.1666 42.1667C42.1682 44.1538 42.7153 46.1024 43.7483 47.8Z" fill="white"/>
<path d="M73.0417 44.3333C73.0423 45.116 72.8886 45.891 72.5893 46.6142C72.2901 47.3373 71.8512 47.9944 71.2978 48.5478C70.7444 49.1012 70.0874 49.54 69.3642 49.8393C68.641 50.1385 67.866 50.2922 67.0834 50.2917C66.1369 50.2958 65.2035 50.0715 64.3623 49.6377C63.5211 49.2039 62.7971 48.5735 62.2517 47.8C63.2846 46.1024 63.8317 44.1538 63.8334 42.1667C63.8348 41.2898 63.7256 40.4162 63.5084 39.5667C64.3936 38.9028 65.4462 38.4985 66.5483 38.3991C67.6503 38.2997 68.7583 38.5092 69.748 39.004C70.7377 39.4989 71.5701 40.2596 72.1518 41.2009C72.7336 42.1421 73.0417 43.2268 73.0417 44.3333Z" fill="white"/>
<path d="M53 50.2915C57.4873 50.2915 61.125 46.6538 61.125 42.1665C61.125 37.6792 57.4873 34.0415 53 34.0415C48.5127 34.0415 44.875 37.6792 44.875 42.1665C44.875 46.6538 48.5127 50.2915 53 50.2915Z" fill="white"/>
<defs>
<linearGradient id="paint0_linear_13_887" x1="52.8087" y1="0" x2="52.8087" y2="106" gradientUnits="userSpaceOnUse">
<stop stop-color="#83DFF4"/>
<stop offset="0.521429" stop-color="#35B1E0"/>
<stop offset="1" stop-color="#33B0E0"/>
</linearGradient>
<linearGradient id="paint1_linear_13_887" x1="52.8592" y1="14" x2="52.8592" y2="92" gradientUnits="userSpaceOnUse">
<stop stop-color="#83DFF4"/>
<stop offset="0.521429" stop-color="#35B1E0"/>
<stop offset="1" stop-color="#33B0E0"/>
</linearGradient>
</defs>
</svg>
