<svg width="106" height="106" viewBox="0 0 106 106" fill="none" xmlns="http://www.w3.org/2000/svg">
<rect opacity="0.3" width="106" height="106" rx="30" fill="url(#paint0_linear_13_789)"/>
<rect x="14" y="14" width="78" height="78" rx="30" fill="url(#paint1_linear_13_789)"/>
<path fill-rule="evenodd" clip-rule="evenodd" d="M52.5284 32.1118C53.1012 31.6711 53.8989 31.6711 54.4718 32.1118L75.1906 48.0493C75.8883 48.5859 76.0187 49.5866 75.4821 50.2842C74.9454 50.982 73.9447 51.1125 73.2471 50.5757L72.6251 50.0973V68.4375C72.6251 71.0782 70.4845 73.2188 67.8438 73.2188H39.1564C36.5157 73.2188 34.3751 71.0782 34.3751 68.4375V50.0973L33.7531 50.5757C33.0554 51.1125 32.0548 50.982 31.5181 50.2842C30.9814 49.5866 31.1119 48.5859 31.8096 48.0493L52.5284 32.1118ZM49.6086 45.589C49.8351 44.9547 50.436 44.5313 51.1095 44.5313H56.6876C57.1783 44.5313 57.6418 44.7574 57.9438 45.1442C58.2458 45.531 58.3528 46.0354 58.2337 46.5115L57.1351 50.9063H60.672C61.2437 50.9063 61.7717 51.2124 62.0555 51.7087C62.3394 52.205 62.3355 52.8152 62.0456 53.308L54.0769 66.8549C53.6988 67.4978 52.9252 67.7925 52.2152 67.5641C51.5052 67.3357 51.0484 66.6453 51.116 65.9026L51.7549 58.875H47.1251C46.6068 58.875 46.1209 58.623 45.8224 58.1993C45.5239 57.7756 45.4499 57.2333 45.6243 56.7453L49.6086 45.589Z" fill="white"/>
<defs>
<linearGradient id="paint0_linear_13_789" x1="52.8087" y1="0" x2="52.8087" y2="106" gradientUnits="userSpaceOnUse">
<stop stop-color="#83DFF4"/>
<stop offset="0.521429" stop-color="#35B1E0"/>
<stop offset="1" stop-color="#33B0E0"/>
</linearGradient>
<linearGradient id="paint1_linear_13_789" x1="52.8592" y1="14" x2="52.8592" y2="92" gradientUnits="userSpaceOnUse">
<stop stop-color="#83DFF4"/>
<stop offset="0.521429" stop-color="#35B1E0"/>
<stop offset="1" stop-color="#33B0E0"/>
</linearGradient>
</defs>
</svg>
