<svg width="106" height="106" viewBox="0 0 106 106" fill="none" xmlns="http://www.w3.org/2000/svg">
<rect opacity="0.3" width="106" height="106" rx="30" fill="url(#paint0_linear_37_40)"/>
<rect x="14" y="14" width="78" height="78" rx="30" fill="url(#paint1_linear_37_40)"/>
<g clip-path="url(#clip0_37_40)">
<path d="M52.5733 28.9996C39.5381 28.9629 28.9631 39.5379 28.9999 52.573C29.0366 65.4613 39.786 75.9996 52.6743 75.9996H75.9999V52.674C75.9999 39.7857 65.4616 29.0363 52.5733 28.9996ZM54.5928 64.4699C53.9778 65.0115 53.2159 65.2869 52.2979 65.2869C51.3799 65.2869 50.618 65.0115 50.003 64.4699C49.3879 63.9283 49.085 63.2307 49.085 62.3861C49.085 61.5416 49.3879 60.8439 50.003 60.3023C50.618 59.7607 51.3799 59.4854 52.2979 59.4854C53.2159 59.4854 53.9778 59.7607 54.5928 60.3023C55.2079 60.8439 55.5108 61.5416 55.5108 62.3861C55.5108 63.2307 55.1987 63.9191 54.5928 64.4699ZM60.0272 49.1123C59.6508 49.8926 59.045 50.6912 58.2096 51.499L56.236 53.335C55.676 53.8766 55.2813 54.4273 55.0702 54.9965C54.8499 55.5656 54.7305 56.2816 54.7122 57.1537H49.7918C49.7918 55.483 49.9846 54.1611 50.361 53.1973C50.7465 52.215 51.3799 51.3521 52.1969 50.682C53.0415 49.9752 53.6932 49.3234 54.1338 48.7359C54.5653 48.176 54.7948 47.4875 54.7948 46.7898C54.7948 45.0641 54.0512 44.192 52.5641 44.192C51.9215 44.1736 51.3065 44.449 50.9026 44.9447C50.4803 45.4496 50.2508 46.1289 50.2325 46.9918H44.4309C44.4584 44.6969 45.1745 42.916 46.5973 41.64C48.0202 40.3641 50.0122 39.7215 52.5733 39.7215C55.1252 39.7215 57.1081 40.309 58.5125 41.4932C59.917 42.6773 60.6147 44.348 60.6147 46.5236C60.6055 47.4141 60.4127 48.3045 60.0272 49.1123Z" fill="white"/>
</g>
<defs>
<linearGradient id="paint0_linear_37_40" x1="52.8087" y1="0" x2="52.8087" y2="106" gradientUnits="userSpaceOnUse">
<stop stop-color="#83DFF4"/>
<stop offset="0.521429" stop-color="#35B1E0"/>
<stop offset="1" stop-color="#33B0E0"/>
</linearGradient>
<linearGradient id="paint1_linear_37_40" x1="52.8592" y1="14" x2="52.8592" y2="92" gradientUnits="userSpaceOnUse">
<stop stop-color="#83DFF4"/>
<stop offset="0.521429" stop-color="#35B1E0"/>
<stop offset="1" stop-color="#33B0E0"/>
</linearGradient>
<clipPath id="clip0_37_40">
<rect width="47" height="47" fill="white" transform="translate(29 29)"/>
</clipPath>
</defs>
</svg>
