<svg width="45" height="45" viewBox="0 0 45 45" fill="none" xmlns="http://www.w3.org/2000/svg">
<g clip-path="url(#clip0_23_9)">
<path d="M22.5 45C34.9264 45 45 34.9264 45 22.5C45 10.0736 34.9264 0 22.5 0C10.0736 0 0 10.0736 0 22.5C0 34.9264 10.0736 45 22.5 45Z" fill="#6F3FAA"/>
<path d="M34.5657 16.0317V16.0023C34.2983 14.9193 33.6005 13.8002 32.6852 12.8577C31.6159 11.7521 30.2543 10.8844 28.9539 10.6035H28.9267C25.0486 9.86037 21.0647 9.86037 17.1866 10.6035H17.1594C14.7444 11.1268 12.1231 13.6506 11.5386 16.0023V16.0317C10.8205 19.292 10.8205 22.6696 11.5386 25.9299V25.9571C11.9555 27.6336 13.4054 29.3962 15.0774 30.461C15.6234 30.8168 16.2178 31.0923 16.8423 31.2789V33.9024C16.8431 34.112 16.9064 34.3167 17.0241 34.4902C17.1417 34.6638 17.3083 34.7984 17.5027 34.8769C17.6972 34.9554 17.9105 34.9742 18.1157 34.931C18.3209 34.8877 18.5085 34.7844 18.6547 34.6341L21.3145 31.8702C21.8899 31.9019 22.4699 31.92 23.0453 31.92C25.0152 31.9194 26.9806 31.7328 28.9154 31.3627H28.9426C31.3508 30.8371 33.9743 28.3133 34.5543 25.9616V25.9344C35.2769 22.6735 35.2807 19.2943 34.5657 16.0317ZM32.461 25.4451C32.0713 26.9788 30.0821 28.8887 28.4985 29.2399C26.4416 29.6339 24.3482 29.8048 22.2547 29.7496C22.2343 29.7484 22.2139 29.7518 22.195 29.7596C22.1762 29.7675 22.1594 29.7796 22.1459 29.7949L20.2043 31.7886L18.1382 33.9069C18.1051 33.9418 18.0623 33.966 18.0154 33.9764C17.9684 33.9867 17.9194 33.9827 17.8747 33.9649C17.8301 33.9471 17.7918 33.9163 17.7648 33.8764C17.7379 33.8366 17.7235 33.7896 17.7236 33.7415V29.3917C17.7236 29.3567 17.7114 29.3228 17.6891 29.2959C17.6667 29.269 17.6356 29.2508 17.6012 29.2444C17.2709 29.166 16.9525 29.0441 16.6542 28.8819C15.3085 28.1637 13.9514 26.6911 13.6388 25.4451C12.9912 22.498 12.9912 19.4455 13.6388 16.4984C14.0262 14.9714 16.0267 13.0661 17.599 12.7127C21.1995 12.0238 24.898 12.0238 28.4985 12.7127C29.3708 12.9075 30.3676 13.5713 31.1469 14.3869C31.7881 15.0507 32.2797 15.8165 32.461 16.5052C33.1075 19.4501 33.1075 22.5002 32.461 25.4451Z" fill="white"/>
<path d="M28.5551 25.6718C28.2607 26.3435 27.7547 26.9004 27.1142 27.2576C26.9132 27.3429 26.7046 27.4089 26.4912 27.4547C26.2488 27.3822 26.0177 27.3324 25.8115 27.244C24.0941 26.5757 22.4954 25.6356 21.0765 24.4597C20.655 24.1003 20.2591 23.7119 19.8916 23.2975C18.9841 22.2524 18.2221 21.0894 17.6261 19.8402C17.3361 19.2489 17.0914 18.6372 16.8422 18.0278C16.6157 17.4727 16.951 16.895 17.2953 16.4804C17.6324 16.0959 18.047 15.7871 18.5119 15.5742C18.6755 15.492 18.8627 15.4696 19.0411 15.511C19.2194 15.5524 19.3777 15.6549 19.4884 15.8008C20.0672 16.4511 20.5774 17.1594 21.0108 17.9145C21.1473 18.1341 21.1941 18.3978 21.1414 18.6509C21.0886 18.904 20.9405 19.1271 20.7276 19.2738C20.6143 19.3531 20.5011 19.4438 20.4036 19.5321C20.3076 19.6032 20.2248 19.6907 20.159 19.7904C20.1022 19.8837 20.0677 19.9889 20.0583 20.0978C20.0488 20.2067 20.0647 20.3162 20.1046 20.4179C20.5418 21.621 21.2057 22.6246 22.198 23.3292C22.5338 23.5666 22.8956 23.765 23.2764 23.9205C23.525 24.0557 23.8044 24.1244 24.0874 24.1199C24.5813 24.0609 24.7444 23.5149 25.0888 23.234C25.2469 23.1046 25.4425 23.0296 25.6466 23.0202C25.8506 23.0108 26.0523 23.0675 26.2216 23.1819C26.5886 23.4085 26.942 23.6645 27.2954 23.9137C27.645 24.1523 27.9816 24.4094 28.3036 24.684C28.4542 24.7934 28.5618 24.952 28.6078 25.1324C28.6537 25.3128 28.6351 25.5036 28.5551 25.6718Z" fill="white"/>
<path d="M23.7001 14.8152H23.4102C23.503 14.8107 23.6005 14.8152 23.7001 14.8152Z" fill="white"/>
<path d="M28.7138 21.6048C28.4873 21.6048 28.3763 21.4122 28.3604 21.2015C28.3309 20.7869 28.3083 20.37 28.2516 19.9577C28.1537 19.262 27.9114 18.5945 27.5403 17.998C27.1588 17.3766 26.6511 16.8422 26.0502 16.4293C25.4492 16.0164 24.7682 15.7342 24.0513 15.6011C23.7251 15.5421 23.392 15.5286 23.0635 15.4946C22.8551 15.4719 22.581 15.4583 22.5357 15.2C22.5289 15.1499 22.5329 15.0989 22.5474 15.0504C22.562 15.0019 22.5867 14.9571 22.6199 14.9189C22.6532 14.8807 22.6942 14.8501 22.7402 14.829C22.7862 14.808 22.8362 14.797 22.8868 14.7968C22.9412 14.7937 22.9956 14.7937 23.0499 14.7968C24.0402 14.8052 25.0132 15.0576 25.8826 15.5319C26.7519 16.0061 27.491 16.6874 28.0342 17.5154C28.463 18.1829 28.7541 18.9293 28.8905 19.7108C28.9766 20.2001 29.0083 20.7031 29.0469 21.2015C29.0546 21.2503 29.0518 21.3003 29.0388 21.348C29.0258 21.3957 29.0028 21.4401 28.9713 21.4782C28.9398 21.5164 28.9005 21.5474 28.8561 21.5692C28.8118 21.591 28.7632 21.6031 28.7138 21.6048Z" fill="white"/>
<path d="M27.4879 20.5469C27.4867 20.6142 27.4775 20.6811 27.4608 20.7463C27.441 20.8118 27.4015 20.8696 27.3477 20.9119C27.2939 20.9542 27.2283 20.9788 27.16 20.9825C27.0917 20.9863 27.0239 20.9688 26.9658 20.9326C26.9077 20.8965 26.8622 20.8433 26.8355 20.7803C26.8105 20.6888 26.7991 20.5942 26.8015 20.4994C26.8068 19.9926 26.7065 19.4903 26.507 19.0245C26.4616 18.9248 26.4118 18.8229 26.3552 18.7254C26.0309 18.1665 25.5495 17.7151 24.9709 17.4273C24.6218 17.2625 24.2511 17.148 23.8699 17.0874C23.7022 17.0603 23.5346 17.0444 23.3669 17.0217C23.3233 17.0196 23.2805 17.0084 23.2414 16.9891C23.2022 16.9697 23.1674 16.9425 23.1392 16.9092C23.1109 16.8758 23.0898 16.8371 23.0772 16.7953C23.0645 16.7534 23.0606 16.7095 23.0656 16.6661C23.0656 16.6217 23.075 16.5778 23.0932 16.5373C23.1114 16.4968 23.1379 16.4606 23.1711 16.431C23.2043 16.4015 23.2433 16.3793 23.2856 16.366C23.328 16.3526 23.3726 16.3483 23.4167 16.3534C24.082 16.3791 24.7337 16.5492 25.3266 16.8518C26.0507 17.2162 26.6413 17.7997 27.0144 18.5193C27.2246 18.9394 27.3654 19.3908 27.4313 19.8559C27.4435 19.9166 27.4526 19.9779 27.4585 20.0395C27.4698 20.1754 27.4743 20.3113 27.4857 20.479C27.4857 20.4948 27.4879 20.5152 27.4879 20.5469Z" fill="white"/>
<path d="M25.9363 20.2345C25.9235 20.292 25.8938 20.3442 25.851 20.3846C25.8082 20.425 25.7543 20.4516 25.6962 20.4611H25.6463C25.5721 20.4659 25.4983 20.4464 25.4362 20.4055C25.3741 20.3646 25.3269 20.3046 25.302 20.2345C25.2879 20.1974 25.2787 20.1585 25.2748 20.119C25.2629 19.9665 25.2402 19.8151 25.2068 19.6659C25.1395 19.3638 24.9678 19.095 24.722 18.9069C24.6031 18.8216 24.4706 18.7572 24.33 18.7166C24.1511 18.6645 23.963 18.6781 23.7863 18.6351C23.699 18.6196 23.6213 18.5701 23.5704 18.4975C23.5194 18.4249 23.4993 18.335 23.5144 18.2476C23.5313 18.1639 23.5781 18.0892 23.6461 18.0375C23.7141 17.9858 23.7985 17.9606 23.8837 17.9667C24.9214 18.0415 25.6962 18.5399 25.8955 19.6523C25.916 19.7556 25.9304 19.86 25.9386 19.9649C25.9513 20.0544 25.9505 20.1453 25.9363 20.2345Z" fill="white"/>
</g>
<defs>
<clipPath id="clip0_23_9">
<rect width="45" height="45" fill="white"/>
</clipPath>
</defs>
</svg>
