<svg width="50" height="50" viewBox="0 0 50 50" fill="none" xmlns="http://www.w3.org/2000/svg">
<rect width="50" height="50" rx="19.2308" fill="url(#paint0_linear_13_902)"/>
<g clip-path="url(#clip0_13_902)">
<path d="M15.5829 25.0051C15.5829 21.0547 18.0282 17.6652 21.4843 16.2693L23.2478 12.7271C17.236 13.5811 12.5977 18.7611 12.5977 25.0051C12.5977 30.6859 16.4371 35.4865 21.6572 36.9493L21.9964 33.931C18.272 32.6744 15.5829 29.1479 15.5829 25.0051Z" fill="white"/>
<path d="M37.4024 25.0052C37.4024 19.3256 33.5646 14.5259 28.3463 13.062L27.9995 16.078C31.726 17.3334 34.4171 20.8609 34.4171 25.0052C34.4171 28.9326 32.0003 32.3055 28.5761 33.7164L26.7637 37.2816C32.7698 36.4227 37.4024 31.2452 37.4024 25.0052Z" fill="white"/>
<path d="M32.0989 23.502C32.2164 23.2708 32.2053 23.0167 32.0696 22.7956C31.9339 22.5745 31.6931 22.4863 31.4335 22.4863H25.7597L26.9811 11.8676C27.0227 11.5076 26.7995 11.1346 26.4519 11.0314C26.3802 11.0102 26.3075 11 26.2358 11C25.9602 11 25.6998 11.1568 25.5715 11.4144L17.8982 26.8327C17.7831 27.064 17.7958 27.3719 17.9318 27.5917C18.0679 27.8114 18.3079 27.9903 18.5664 27.9903H24.1654L23.0176 38.2094C22.9775 38.568 23.1996 38.8696 23.5454 38.9729C23.6164 38.9942 23.6883 39 23.7593 39C24.0343 39 24.2947 38.8473 24.4247 38.5916L32.0989 23.502Z" fill="white"/>
</g>
<defs>
<linearGradient id="paint0_linear_13_902" x1="24.9097" y1="0" x2="24.9097" y2="50" gradientUnits="userSpaceOnUse">
<stop stop-color="#83DFF4"/>
<stop offset="0.521429" stop-color="#35B1E0"/>
<stop offset="1" stop-color="#33B0E0"/>
</linearGradient>
<clipPath id="clip0_13_902">
<rect width="28" height="28" fill="white" transform="translate(11 11)"/>
</clipPath>
</defs>
</svg>
