<svg width="50" height="50" viewBox="0 0 50 50" fill="none" xmlns="http://www.w3.org/2000/svg">
<rect width="50" height="50" rx="19.2308" fill="url(#paint0_linear_13_910)"/>
<path d="M24.8227 28.5854C26.8117 28.5854 28.424 26.973 28.424 24.9841C28.424 22.9952 26.8117 21.3828 24.8227 21.3828C22.8338 21.3828 21.2214 22.9952 21.2214 24.9841C21.2214 26.973 22.8338 28.5854 24.8227 28.5854Z" fill="white"/>
<path d="M34.3846 20.7065H34.3837C33.2192 20.7065 32.2741 21.6516 32.2741 22.817V24.889C32.2741 28.9718 28.9632 32.2836 24.8795 32.2836C20.7954 32.2836 17.4839 28.9717 17.4839 24.889V22.817C17.4839 21.6507 16.5379 20.7065 15.3735 20.7065C14.209 20.7065 13.2639 21.6516 13.2639 22.817V24.8505C13.2639 28.6375 15.0764 32.001 17.8807 34.1212C18.0433 34.2441 18.1388 34.436 18.1388 34.6398V40.3484C18.1388 40.7081 18.4305 40.9999 18.7903 40.9999H30.8487C31.2085 40.9999 31.5002 40.7081 31.5002 40.3484V34.6978C31.5002 34.4927 31.5968 34.2998 31.7612 34.177C34.6356 32.0307 36.4942 28.5797 36.4942 24.7251V22.817C36.4941 21.6516 35.5491 20.7065 34.3846 20.7065Z" fill="white"/>
<path d="M21.4548 15.082C21.5666 15.2178 21.6235 15.3906 21.6145 15.5663L21.4922 17.9268C21.4656 18.4396 21.9789 18.8077 22.456 18.618L24.619 17.7583C24.7861 17.6918 24.9724 17.6918 25.1395 17.7583L27.3025 18.618C27.7797 18.8077 28.2929 18.4396 28.2663 17.9268L28.144 15.5663C28.1349 15.3906 28.1918 15.2178 28.3037 15.082L29.7651 13.3069C30.0885 12.9141 29.9016 12.3185 29.4118 12.1808L27.1412 11.5429C26.978 11.497 26.8369 11.3939 26.7436 11.2524L25.4674 9.31673C25.189 8.89442 24.5694 8.89442 24.291 9.31673L23.0148 11.2524C22.9215 11.3939 22.7804 11.4971 22.6172 11.5429L20.3467 12.1809C19.8568 12.3185 19.6699 12.9141 19.9933 13.307L21.4548 15.082Z" fill="white"/>
<path d="M18.3872 17.4223C18.7689 17.0407 18.7689 16.4219 18.3872 16.0403L14.5179 12.171C14.1363 11.7894 13.5175 11.7894 13.1359 12.171C12.7542 12.5525 12.7542 13.1714 13.1359 13.553L17.0052 17.4223C17.3868 17.804 18.0056 17.8039 18.3872 17.4223Z" fill="white"/>
<path d="M36.8643 12.171C36.4827 11.7894 35.8639 11.7894 35.4822 12.171L31.6129 16.0403C31.2312 16.4219 31.2312 17.0407 31.6129 17.4223C31.9946 17.804 32.6133 17.804 32.9949 17.4223L36.8643 13.553C37.2459 13.1714 37.2459 12.5526 36.8643 12.171Z" fill="white"/>
<defs>
<linearGradient id="paint0_linear_13_910" x1="24.9097" y1="0" x2="24.9097" y2="50" gradientUnits="userSpaceOnUse">
<stop stop-color="#83DFF4"/>
<stop offset="0.521429" stop-color="#35B1E0"/>
<stop offset="1" stop-color="#33B0E0"/>
</linearGradient>
</defs>
</svg>
