<svg width="50" height="50" viewBox="0 0 50 50" fill="none" xmlns="http://www.w3.org/2000/svg">
<rect width="50" height="50" rx="19.2308" fill="url(#paint0_linear_13_920)"/>
<g clip-path="url(#clip0_13_920)">
<path d="M29.7072 13.0584C29.6086 12.7482 29.3406 12.5216 29.0178 12.476L27.1086 12.2048L26.2584 10.4295C25.9694 9.85685 25.0304 9.85685 24.7417 10.4295L23.8912 12.2048L21.982 12.476C21.6592 12.5216 21.3912 12.7482 21.2926 13.0584C21.193 13.3688 21.28 13.7082 21.5156 13.933L22.8847 15.2355L22.5619 17.0708C22.5064 17.3885 22.6349 17.7104 22.8947 17.9014C23.1582 18.0961 23.5051 18.1184 23.7874 17.9735L25.4999 17.094L27.2133 17.9735C27.4996 18.122 27.8463 18.0923 28.1051 17.9014C28.3649 17.7098 28.4934 17.3878 28.4379 17.0708L28.1151 15.2355L29.4842 13.933C29.7198 13.7082 29.8068 13.3688 29.7072 13.0584Z" fill="white"/>
<path d="M39.9592 16.457C39.8605 16.1468 39.5926 15.9203 39.2698 15.8747L37.3039 15.6034L36.4534 13.9215C36.1647 13.3491 35.2255 13.3491 34.9368 13.9215L34.0865 15.6034L32.1773 15.8747C31.8545 15.9203 31.5866 16.1468 31.4879 16.457C31.3883 16.7674 31.4753 17.1068 31.7109 17.3316L33.08 18.6341L32.7572 20.4694C32.7017 20.7872 32.8302 21.1091 33.09 21.3C33.3535 21.4947 33.7002 21.5171 33.9827 21.3721L35.6952 20.4927L37.4086 21.3721C37.6949 21.5215 38.0398 21.4916 38.3005 21.3C38.5602 21.1084 38.6888 20.7865 38.6332 20.4694L38.3104 18.6341L39.7362 17.3316C39.9718 17.1068 40.0588 16.7674 39.9592 16.457Z" fill="white"/>
<path d="M19.5119 16.457C19.4132 16.1468 19.1453 15.9203 18.8225 15.8747L16.9133 15.6034L16.063 13.9215C15.7741 13.3491 14.8351 13.3491 14.5464 13.9215L13.6959 15.6034L11.73 15.8747C11.4072 15.9203 11.1393 16.1468 11.0406 16.457C10.941 16.7674 11.028 17.1068 11.2636 17.3316L12.6894 18.6341L12.3666 20.4694C12.311 20.7872 12.4396 21.1091 12.6993 21.3C12.9629 21.4947 13.3098 21.5171 13.5921 21.3721L15.3046 20.4927L17.018 21.3721C17.3058 21.5215 17.6492 21.4916 17.9098 21.3C18.1696 21.1084 18.2981 20.7865 18.2426 20.4694L17.9198 18.6341L19.2889 17.3316C19.5245 17.1068 19.6115 16.7674 19.5119 16.457Z" fill="white"/>
<path d="M29.748 24.5C29.748 26.8462 27.8462 28.748 25.5 28.748C23.1538 28.748 21.252 26.8462 21.252 24.5C21.252 22.1538 23.1538 20.252 25.5 20.252C27.8462 20.252 29.748 22.1538 29.748 24.5Z" fill="white"/>
<path d="M17.8535 27.8984C17.8535 29.306 16.7123 30.4473 15.3047 30.4473C13.8971 30.4473 12.7559 29.306 12.7559 27.8984C12.7559 26.4906 13.8971 25.3496 15.3047 25.3496C16.7123 25.3496 17.8535 26.4906 17.8535 27.8984Z" fill="white"/>
<path d="M38.2441 27.8984C38.2441 29.306 37.1029 30.4473 35.6953 30.4473C34.2877 30.4473 33.1465 29.306 33.1465 27.8984C33.1465 26.4906 34.2877 25.3496 35.6953 25.3496C37.1029 25.3496 38.2441 26.4906 38.2441 27.8984Z" fill="white"/>
<path d="M19.5527 39H31.4473V36.3945C31.4473 33.1098 28.7845 30.4473 25.5 30.4473C22.2155 30.4473 19.5527 33.1098 19.5527 36.3945V39Z" fill="white"/>
<path d="M36.4916 32.22C34.9369 31.9339 33.5178 32.5067 32.5781 33.5282C32.9385 34.415 33.1465 35.3799 33.1465 36.3946V39H39.1504C39.6197 39 40 38.6197 40 38.1504V36.5747C40 34.4986 38.5331 32.5954 36.4916 32.22Z" fill="white"/>
<path d="M11.8496 39H17.8535V36.3946C17.8535 35.3799 18.0615 34.415 18.4219 33.5282C17.4823 32.5067 16.0631 31.9339 14.5084 32.22C12.4669 32.5954 11 34.4986 11 36.5747V38.1504C11 38.6197 11.3803 39 11.8496 39Z" fill="white"/>
</g>
<defs>
<linearGradient id="paint0_linear_13_920" x1="24.9097" y1="0" x2="24.9097" y2="50" gradientUnits="userSpaceOnUse">
<stop stop-color="#83DFF4"/>
<stop offset="0.521429" stop-color="#35B1E0"/>
<stop offset="1" stop-color="#33B0E0"/>
</linearGradient>
<clipPath id="clip0_13_920">
<rect width="29" height="29" fill="white" transform="translate(11 10)"/>
</clipPath>
</defs>
</svg>
