<svg width="73" height="73" viewBox="0 0 73 73" fill="none" xmlns="http://www.w3.org/2000/svg">
<circle cx="36.5" cy="36.5" r="36.5" fill="url(#paint0_linear_13_243)"/>
<path d="M33.0698 28.197C31.4277 28.197 29.8224 28.684 28.4569 29.5963C27.0915 30.5087 26.0273 31.8054 25.3989 33.3226C24.7704 34.8398 24.606 36.5092 24.9264 38.1198C25.2468 39.7305 26.0375 41.2099 27.1987 42.3711C28.3599 43.5323 29.8394 44.3231 31.45 44.6434C33.0606 44.9638 34.7301 44.7994 36.2472 44.171C37.7644 43.5425 39.0612 42.4783 39.9735 41.1129C40.8858 39.7475 41.3728 38.1422 41.3728 36.5C41.3728 34.2979 40.498 32.186 38.9409 30.6289C37.3838 29.0718 35.2719 28.197 33.0698 28.197ZM34.8268 41.9855H31.3129C31.102 41.9855 30.8998 41.9017 30.7507 41.7527C30.6016 41.6036 30.5179 41.4013 30.5179 41.1905C30.5179 40.9797 30.6016 40.7774 30.7507 40.6284C30.8998 40.4793 31.102 40.3955 31.3129 40.3955H34.8268C35.0376 40.3955 35.2398 40.4793 35.3889 40.6284C35.538 40.7774 35.6218 40.9797 35.6218 41.1905C35.6218 41.4013 35.538 41.6036 35.3889 41.7527C35.2398 41.9017 35.0376 41.9855 34.8268 41.9855ZM34.8268 33.9602H33.8648V34.9222C33.8648 35.133 33.7811 35.3353 33.632 35.4843C33.4829 35.6334 33.2807 35.7172 33.0698 35.7172C32.859 35.7172 32.6568 35.6334 32.5077 35.4843C32.3586 35.3353 32.2748 35.133 32.2748 34.9222V33.9602H31.3129C31.102 33.9602 30.8998 33.8765 30.7507 33.7274C30.6016 33.5783 30.5179 33.3761 30.5179 33.1652C30.5179 32.9544 30.6016 32.7522 30.7507 32.6031C30.8998 32.454 31.102 32.3702 31.3129 32.3702H32.2748V31.4083C32.2748 31.1974 32.3586 30.9952 32.5077 30.8461C32.6568 30.6971 32.859 30.6133 33.0698 30.6133C33.2807 30.6133 33.4829 30.6971 33.632 30.8461C33.7811 30.9952 33.8648 31.1974 33.8648 31.4083V32.3702H34.8268C35.0376 32.3702 35.2398 32.454 35.3889 32.6031C35.538 32.7522 35.6218 32.9544 35.6218 33.1652C35.6218 33.3761 35.538 33.5783 35.3889 33.7274C35.2398 33.8765 35.0376 33.9602 34.8268 33.9602Z" fill="white"/>
<path d="M41.8774 17.95C41.8768 18.403 41.9598 18.8522 42.1223 19.275H34.3949V27.2308C33.516 27.1058 32.6238 27.1058 31.7449 27.2308V17.95C31.7449 17.5986 31.8845 17.2616 32.133 17.0131C32.3814 16.7646 32.7185 16.625 33.0699 16.625H42.1223C41.9598 17.0478 41.8768 17.497 41.8774 17.95Z" fill="white"/>
<path d="M41.8774 55.05C41.8768 55.503 41.9598 55.9522 42.1223 56.375H33.0699C32.7185 56.375 32.3814 56.2354 32.133 55.9869C31.8845 55.7384 31.7449 55.4014 31.7449 55.05V45.7692C32.6238 45.8942 33.516 45.8942 34.3949 45.7692V53.725H42.1223C41.9598 54.1478 41.8768 54.597 41.8774 55.05Z" fill="white"/>
<path d="M45.5854 20.5958C47.0478 20.5958 48.2333 19.4103 48.2333 17.9479C48.2333 16.4855 47.0478 15.3 45.5854 15.3C44.123 15.3 42.9375 16.4855 42.9375 17.9479C42.9375 19.4103 44.123 20.5958 45.5854 20.5958Z" fill="white"/>
<path d="M45.5854 57.7001C47.0478 57.7001 48.2333 56.5146 48.2333 55.0522C48.2333 53.5898 47.0478 52.4043 45.5854 52.4043C44.123 52.4043 42.9375 53.5898 42.9375 55.0522C42.9375 56.5146 44.123 57.7001 45.5854 57.7001Z" fill="white"/>
<defs>
<linearGradient id="paint0_linear_13_243" x1="36.3682" y1="0" x2="36.3682" y2="73" gradientUnits="userSpaceOnUse">
<stop offset="0.521429" stop-color="#35B1E0"/>
<stop offset="1" stop-color="#33B0E0"/>
</linearGradient>
</defs>
</svg>
