<svg width="73" height="73" viewBox="0 0 73 73" fill="none" xmlns="http://www.w3.org/2000/svg">
<circle cx="36.5" cy="36.5" r="36.5" fill="url(#paint0_linear_13_255)"/>
<g clip-path="url(#clip0_13_255)">
<path d="M36 21.3378C35.241 21.3378 34.625 20.7218 34.625 19.9628V16.375C34.625 15.616 35.241 15 36 15C36.759 15 37.375 15.616 37.375 16.375V19.9628C37.375 20.7218 36.759 21.3378 36 21.3378Z" fill="white"/>
<path d="M48.0469 26.3281C47.6949 26.3281 47.3429 26.1943 47.0752 25.9248C46.5381 25.3876 46.5381 24.5168 47.0752 23.9796L49.6126 21.4423C50.1497 20.9051 51.0206 20.9051 51.5577 21.4423C52.0949 21.9795 52.0949 22.8503 51.5577 23.3875L49.0204 25.9248C48.7509 26.1925 48.4007 26.3281 48.0469 26.3281Z" fill="white"/>
<path d="M56.6251 38.375H53.0391C52.2801 38.375 51.6641 37.759 51.6641 37C51.6641 36.241 52.2801 35.625 53.0391 35.625H56.6251C57.3841 35.625 58.0001 36.241 58.0001 37C58.0001 37.759 57.3841 38.375 56.6251 38.375Z" fill="white"/>
<path d="M50.5842 52.9591C50.2322 52.9591 49.8802 52.8253 49.6126 52.5558L47.0752 50.0185C46.5381 49.4813 46.5381 48.6105 47.0752 48.0733C47.6124 47.5361 48.4832 47.5361 49.0204 48.0733L51.5577 50.6106C52.0949 51.1478 52.0949 52.0186 51.5577 52.5558C51.2882 52.8253 50.9362 52.9591 50.5842 52.9591Z" fill="white"/>
<path d="M36 58.9999C35.241 58.9999 34.625 58.3839 34.625 57.6249V54.0371C34.625 53.2781 35.241 52.6621 36 52.6621C36.759 52.6621 37.375 53.2781 37.375 54.0371V57.6249C37.375 58.3839 36.759 58.9999 36 58.9999Z" fill="white"/>
<path d="M21.4158 52.9591C21.0638 52.9591 20.7118 52.8253 20.4441 52.5558C19.907 52.0186 19.907 51.1478 20.4441 50.6106L22.9815 48.0733C23.5186 47.5361 24.3895 47.5361 24.9266 48.0733C25.4638 48.6105 25.4638 49.4813 24.9266 50.0185L22.3893 52.5558C22.1198 52.8253 21.7678 52.9591 21.4158 52.9591Z" fill="white"/>
<path d="M18.961 38.375H15.375C14.616 38.375 14 37.759 14 37C14 36.241 14.616 35.625 15.375 35.625H18.961C19.72 35.625 20.336 36.241 20.336 37C20.336 37.759 19.72 38.375 18.961 38.375Z" fill="white"/>
<path d="M23.9531 26.3281C23.6011 26.3281 23.2491 26.1943 22.9815 25.9248L20.4441 23.3875C19.907 22.8503 19.907 21.9795 20.4441 21.4423C20.9813 20.9051 21.8521 20.9051 22.3893 21.4423L24.9266 23.9796C25.4638 24.5168 25.4638 25.3876 24.9266 25.9248C24.6553 26.1925 24.3051 26.3281 23.9531 26.3281Z" fill="white"/>
<path d="M33.8421 51.6667C33.6844 51.6667 33.5249 51.6392 33.3709 51.5842C32.7641 51.3623 32.3938 50.75 32.4799 50.112L33.9741 38.8333H28.2083C27.6913 38.8333 27.2164 38.5418 26.9818 38.0798C26.7471 37.6178 26.7929 37.0623 27.0991 36.6462L37.1824 22.8962C37.5583 22.381 38.2403 22.1903 38.8251 22.4415C39.4118 22.689 39.7528 23.3068 39.6483 23.9338L38.0826 33.3333H43.7916C44.2939 33.3333 44.7559 33.6065 44.9979 34.0483C45.2381 34.4883 45.2198 35.0255 44.9503 35.449L35.0008 51.0323C34.7423 51.4375 34.3004 51.6667 33.8421 51.6667Z" fill="white"/>
</g>
<defs>
<linearGradient id="paint0_linear_13_255" x1="36.3682" y1="0" x2="36.3682" y2="73" gradientUnits="userSpaceOnUse">
<stop offset="0.521429" stop-color="#35B1E0"/>
<stop offset="1" stop-color="#33B0E0"/>
</linearGradient>
<clipPath id="clip0_13_255">
<rect width="44" height="44" fill="white" transform="translate(14 15)"/>
</clipPath>
</defs>
</svg>
