<svg width="73" height="73" viewBox="0 0 73 73" fill="none" xmlns="http://www.w3.org/2000/svg">
<circle cx="36.5" cy="36.5" r="36.5" fill="url(#paint0_linear_13_271)"/>
<g clip-path="url(#clip0_13_271)">
<path d="M44.1251 22C40.3275 22 37.2499 25.0773 37.2499 28.8749V45.1251C37.2499 47.542 35.2905 49.4999 32.8751 49.4999C30.4594 49.4999 28.5 47.542 28.5 45.1251V38.1243C31.3526 37.5445 33.4999 35.0234 33.4999 32.0001V28.2501H31.0001V23.2499C31.0001 22.5591 30.441 22 29.7499 22C29.0591 22 28.5 22.5591 28.5 23.2499V28.2501H25.9999V23.2499C25.9999 22.5591 25.4411 22 24.75 22C24.0589 22 23.5001 22.5591 23.5001 23.2499V28.2501H21V32.0001C21 35.0238 23.1472 37.5445 25.9999 38.1243V45.1251C25.9999 48.9227 29.0786 52 32.8751 52C36.6713 52 39.75 48.9227 39.75 45.1251V28.8749C39.75 26.458 41.7083 24.5001 44.1251 24.5001C46.542 24.5001 48.4999 26.458 48.4999 28.8749V52H51V28.8749C51 25.0773 47.9227 22 44.1251 22Z" fill="white"/>
</g>
<defs>
<linearGradient id="paint0_linear_13_271" x1="36.3682" y1="0" x2="36.3682" y2="73" gradientUnits="userSpaceOnUse">
<stop offset="0.521429" stop-color="#35B1E0"/>
<stop offset="1" stop-color="#33B0E0"/>
</linearGradient>
<clipPath id="clip0_13_271">
<rect width="30" height="30" fill="white" transform="translate(21 22)"/>
</clipPath>
</defs>
</svg>
