<svg width="73" height="73" viewBox="0 0 73 73" fill="none" xmlns="http://www.w3.org/2000/svg">
<circle cx="36.5" cy="36.5" r="36.5" fill="url(#paint0_linear_13_281)"/>
<g clip-path="url(#clip0_13_281)">
<path d="M47.2983 25.7012C41.0308 19.4337 30.9709 19.4315 24.7012 25.7012C18.4337 31.9687 18.4315 42.0286 24.7012 48.2983C30.9687 54.5659 41.0286 54.568 47.2983 48.2983C53.5659 42.0308 53.568 31.9709 47.2983 25.7012ZM35.0624 29.5012C35.0624 28.9836 35.4821 28.5639 35.9998 28.5639C36.5174 28.5639 36.9371 28.9836 36.9371 29.5012V34.5002C36.9371 35.0179 36.5174 35.4376 35.9998 35.4376C35.4821 35.4376 35.0624 35.0179 35.0624 34.5002V29.5012ZM35.9998 43.9359C32.1751 43.9359 29.0636 40.8244 29.0636 36.9998C29.0636 34.9985 29.9283 33.0947 31.436 31.7765C31.8257 31.4357 32.4178 31.4754 32.7586 31.8651C33.0993 32.2548 33.0596 32.847 32.67 33.1877C31.5695 34.1499 30.9383 35.5394 30.9383 36.9998C30.9383 39.7907 33.2089 42.0613 35.9998 42.0613C38.7908 42.0613 41.0613 39.7907 41.0613 36.9998C41.0613 35.5537 40.4404 34.1733 39.3579 33.2126C38.9707 32.8689 38.9354 32.2766 39.279 31.8893C39.6226 31.5021 40.215 31.4668 40.6022 31.8104C42.0854 33.1266 42.9359 35.0181 42.9359 36.9997C42.9359 40.8244 39.8244 43.9359 35.9998 43.9359Z" fill="white"/>
</g>
<defs>
<linearGradient id="paint0_linear_13_281" x1="36.3682" y1="0" x2="36.3682" y2="73" gradientUnits="userSpaceOnUse">
<stop offset="0.521429" stop-color="#35B1E0"/>
<stop offset="1" stop-color="#33B0E0"/>
</linearGradient>
<clipPath id="clip0_13_281">
<rect width="32" height="32" fill="white" transform="translate(20 21)"/>
</clipPath>
</defs>
</svg>
