<svg width="73" height="73" viewBox="0 0 73 73" fill="none" xmlns="http://www.w3.org/2000/svg">
<circle cx="36.5" cy="36.5" r="36.5" fill="url(#paint0_linear_37_66)"/>
<path d="M31.8079 49.29L41.9059 38.784C42.4159 38.274 42.0079 37.356 41.2939 37.356H37.8259L42.6199 28.89C42.9259 28.278 42.5179 27.564 41.9059 27.564H36.7039C36.3979 27.564 36.0919 27.768 35.8879 28.074L30.5839 39.09C30.2779 39.702 30.6859 40.314 31.3999 40.314H34.4599L30.3799 48.27C29.9719 49.188 31.0939 50.004 31.8079 49.29Z" fill="white"/>
<path d="M20.3843 27.972C20.5883 27.564 20.7923 27.156 21.0983 26.748C21.7103 25.83 21.4043 24.504 20.4863 23.892C19.5683 23.28 18.2423 23.586 17.6303 24.504C16.8143 25.728 16.2023 27.054 15.5903 28.482C15.0803 29.91 14.6723 31.338 14.4683 32.766L18.7523 32.256C19.0583 30.828 19.5683 29.4 20.3843 27.972Z" fill="white"/>
<path d="M18.2421 36.54V36.234L14.1621 36.642C14.1621 38.07 14.2641 39.396 14.5701 40.722L18.6501 40.314C18.3441 39.192 18.2421 37.866 18.2421 36.54Z" fill="white"/>
<path d="M19.8743 44.1899L15.5903 44.6999C16.1003 46.1279 16.8143 47.3519 17.5283 48.6779L22.2203 48.1679C21.3023 46.8419 20.4863 45.5159 19.8743 44.1899Z" fill="white"/>
<path d="M41.6003 14.712C42.1103 14.304 43.0283 13.59 42.9263 13.692C43.8443 12.978 43.9463 11.652 43.2323 10.836C42.5183 9.91796 41.1923 9.81596 40.3763 10.53L35.2763 14.61C34.3583 15.324 34.2563 16.65 34.9703 17.466L39.0503 22.566C39.7643 23.484 41.0903 23.586 41.9063 22.872C42.8243 22.158 42.9263 20.832 42.2123 20.016L41.3963 18.996C52.3103 21.954 58.0223 34.398 52.9223 44.7C50.8823 48.882 47.1083 52.35 42.3143 53.88C37.1123 55.614 30.9923 55.002 26.0963 51.534L20.4863 52.146C21.8123 53.574 23.3423 54.798 25.0763 55.818C35.4803 62.04 49.0463 58.878 55.5743 48.372C63.5303 35.316 56.4923 18.18 41.6003 14.712Z" fill="white"/>
<defs>
<linearGradient id="paint0_linear_37_66" x1="36.3682" y1="0" x2="36.3682" y2="73" gradientUnits="userSpaceOnUse">
<stop offset="0.521429" stop-color="#35B1E0"/>
<stop offset="1" stop-color="#33B0E0"/>
</linearGradient>
</defs>
</svg>
