<svg width="73" height="73" viewBox="0 0 73 73" fill="none" xmlns="http://www.w3.org/2000/svg">
<circle cx="36.5" cy="36.5" r="36.5" fill="url(#paint0_linear_37_78)"/>
<path d="M51.035 24.12L38.26 18.45C37.4725 18.1 36.5625 18.1 35.775 18.45L22.965 24.12C21.8625 24.61 21.145 25.7125 21.145 26.92V39.9925C21.145 42.6175 22.0375 45.0675 23.7175 47.045C24.295 47.78 25.0475 48.4625 26.045 49.145L35.3025 55.305C35.81 55.6375 36.405 55.8125 36.9825 55.8125C37.56 55.8125 38.155 55.6375 38.6625 55.305L47.92 49.145C50.9825 47.115 52.82 43.685 52.82 39.975V26.9025C52.82 25.695 52.1025 24.61 51 24.12H51.035ZM44.07 33.8325L36.195 42.005C35.9325 42.2675 35.6 42.4075 35.25 42.4075C34.935 42.4075 34.6025 42.285 34.3575 42.0575L29.9825 37.98C29.4575 37.49 29.4225 36.65 29.9125 36.125C30.4025 35.6 31.2425 35.565 31.7675 36.055L35.1975 39.2575L42.18 32.0125C42.6875 31.4875 43.51 31.47 44.035 31.9775C44.56 32.485 44.5775 33.3075 44.07 33.8325Z" fill="white"/>
<defs>
<linearGradient id="paint0_linear_37_78" x1="36.3682" y1="0" x2="36.3682" y2="73" gradientUnits="userSpaceOnUse">
<stop offset="0.521429" stop-color="#35B1E0"/>
<stop offset="1" stop-color="#33B0E0"/>
</linearGradient>
</defs>
</svg>
